<svg width="147" height="103" viewBox="0 0 147 103" fill="none" xmlns="http://www.w3.org/2000/svg">
<path d="M29.6917 2.21459C26.0049 3.08395 22.6532 3.84113 22.249 3.89721C21.3125 4.01873 20.6028 4.34591 19.9423 4.96287C19.3015 5.55179 18.8284 6.23418 18.4143 7.15963C17.8524 8.41225 17.7046 9.12269 17.6454 10.8334C17.5665 13.0208 17.8031 14.3856 18.5228 15.984C19.3015 17.7041 20.7408 21.49 20.6323 21.518C20.5732 21.5367 20.1592 21.6208 19.7057 21.705C18.0693 22.0134 16.6005 22.6024 15.7625 23.3034C15.2894 23.6961 15.2302 23.7895 14.9148 24.7243C13.998 27.4352 13.8797 29.7628 14.5205 32.5018C14.826 33.7824 15.1316 34.6144 15.6935 35.6801C16.5413 37.2785 18.0594 38.9051 19.8339 40.1297C20.8295 40.8121 22.9095 41.8216 24.0235 42.1675C24.8417 42.4199 27.799 43.0929 29.2481 43.3547C30.4902 43.579 32.8364 43.5977 33.5955 43.3827C34.3151 43.1771 35.5375 42.5695 36.0501 42.1488C36.405 41.8684 36.7303 41.7375 38.0611 41.3729C38.9384 41.1299 40.8903 40.5877 42.4084 40.167C43.9265 39.7464 46.0756 39.1481 47.1895 38.8396C50.1962 38.0077 52.5325 37.3533 54.6716 36.7551L56.5742 36.2316L56.8404 36.4559C56.9784 36.5775 58.25 37.6805 59.6597 38.9051C61.0694 40.1203 62.2326 41.1579 62.2524 41.1953C62.2819 41.2701 61.0103 41.5879 57.491 42.3732C56.2489 42.6536 54.9575 42.9621 54.6322 43.0555C54.3069 43.1584 52.5128 43.7006 50.6398 44.2708L47.2388 45.2897L46.5487 45.2243C44.587 45.0093 40.7424 46.0375 38.3174 47.4117C37.8935 47.6547 37.2035 47.8604 35.222 48.3371C32.0675 49.0943 31.8999 49.1036 29.5833 48.5802C26.4978 47.8791 23.0475 47.0845 20.5535 46.5143L18.0693 45.944L17.1229 46.0936C16.6103 46.1777 15.2006 46.4114 13.9881 46.6171C12.7756 46.8228 11.711 46.991 11.6025 46.991C11.5039 46.991 10.9716 46.7854 10.4196 46.533C9.44364 46.0749 9.41407 46.0656 9.00989 46.1871C8.78316 46.2525 7.40306 46.6545 5.93423 47.0845C4.47526 47.5051 3.2036 47.8884 3.11488 47.9352C2.86843 48.0567 1.97136 49.0102 1.55733 49.5991C1.09401 50.2347 0.62083 51.1321 0.29552 51.9454L0.0490723 52.553L0.10822 55.965C0.137793 57.8439 0.236372 63.1442 0.315235 67.7433C0.522251 79.4563 0.492677 78.8486 0.80813 79.8021C1.27145 81.1856 2.21781 83.1113 3.19374 84.6443C3.73592 85.495 3.59791 85.3922 7.80723 88.1218C14.481 92.4592 20.7506 96.002 27.8187 99.4327C30.2635 100.62 34.0588 102.331 34.2362 102.331C34.3447 102.331 36.0797 101.77 40.8805 100.171L42.0141 99.7973L42.6844 98.8718C43.2956 98.0399 43.4139 97.9371 43.8674 97.7594C44.1533 97.6566 45.3362 97.236 46.4994 96.8153C49.5948 95.7123 49.6934 95.6749 49.8117 95.5627C49.8807 95.5066 50.413 94.5531 51.0144 93.4501L52.0987 91.4403L52.3057 89.9913C52.4142 89.1968 52.5423 88.29 52.5719 87.9815C52.6705 86.9159 52.5719 87 53.7746 87C55.4504 87 57.3234 86.6354 59.1668 85.9531C59.709 85.7567 60.2315 85.495 60.3399 85.3828C60.4385 85.2707 60.754 84.7378 61.0398 84.1956L61.5623 83.2048L62.9128 82.8495L64.2634 82.485L67.0531 83.3356C68.5811 83.8124 69.9218 84.1956 70.0204 84.1956C70.1288 84.1956 71.7751 83.8217 73.6875 83.373L77.1673 82.5411L77.6109 83.1767C78.1531 83.9619 78.6953 84.4106 79.4938 84.7752C80.7359 85.3361 82.047 85.3454 83.8608 84.7939L84.6988 84.5509L85.4085 84.7098C86.0789 84.85 86.1775 84.8593 86.8379 84.7098C87.2322 84.635 96.8437 81.6343 108.18 78.0447L128.813 71.5292L129.237 70.501L129.651 69.4727L131.622 68.8277C132.707 68.4725 133.614 68.1734 133.633 68.1547C133.673 68.1266 134.777 62.7422 135.378 59.6855C135.526 58.9189 135.565 58.8628 135.911 58.6291C136.177 58.4515 136.433 58.1057 136.877 57.3391C138.355 54.7404 139.341 52.095 139.824 49.4682C140.031 48.3184 140.051 45.4206 139.873 44.3269C139.696 43.3266 139.233 41.5786 138.907 40.7186C138.444 39.494 137.448 37.6244 136.65 36.4559C136.64 36.4372 136.256 36.3251 135.782 36.1942C135.309 36.0633 134.629 35.839 134.274 35.6801C132.401 34.8761 130.775 33.1842 129.838 31.0809C129.513 30.3424 129.394 30.1741 128.734 29.5946C126.871 27.94 124.101 26.5939 121.291 25.9489L120.325 25.7339L118.896 26.0704L117.466 26.4069L117.151 25.8274C116.983 25.5189 116.826 25.2291 116.806 25.2011C116.796 25.173 117.279 25.0515 117.89 24.9393C118.501 24.8271 119.408 24.6308 119.891 24.5093C120.384 24.3878 122.169 23.9484 123.874 23.5278L126.969 22.7706L127.896 23.453C128.409 23.8269 128.902 24.1821 128.99 24.2382C129.118 24.3224 129.503 24.2476 130.784 23.9017C131.681 23.6587 134.806 22.7987 137.734 21.9947L143.057 20.5271L143.501 20.0504C144.921 18.5173 146.064 16.6104 146.458 15.1147C146.882 13.4508 146.794 11.6186 146.192 10.0201C145.542 8.29073 144.152 6.21549 142.762 4.87874C141.589 3.76634 139.351 2.57915 136.955 1.79394C135.743 1.40132 133.436 0.924576 131.967 0.756317L130.637 0.60675L127.778 1.13023C120.739 2.43894 118.886 2.78481 118.57 2.85024C118.265 2.91568 118.225 2.96242 117.93 3.72895C117.762 4.1683 117.595 4.56091 117.565 4.58896C117.496 4.65439 116.954 4.75722 112.301 5.57983C108.101 6.32767 104.03 7.06615 103.715 7.13158C103.596 7.15963 103.251 7.51485 102.936 7.92616C102.63 8.33746 102.275 8.72073 102.157 8.76746C102.049 8.8142 100.462 9.16008 98.6477 9.54334C96.8338 9.92661 92.8611 10.7679 89.8249 11.4129C86.7886 12.0579 82.9145 12.8805 81.2091 13.2358L78.1137 13.8901L76.5759 13.3853C75.7281 13.1142 74.1311 12.5814 73.0172 12.2075L70.9963 11.5344L69.8626 11.6373C67.0137 11.9177 65.5547 12.6936 64.845 14.3108C64.6675 14.7127 64.5 15.1895 64.4704 15.3577C64.4408 15.5353 64.3718 15.6756 64.3225 15.6756C64.2732 15.6756 63.5339 15.3671 62.6861 14.9932L61.1384 14.3201L57.8459 14.2921C56.032 14.2827 54.5139 14.3014 54.4745 14.3388C54.435 14.3762 54.3759 15.4606 54.3365 16.7506C54.297 18.0312 54.2379 19.3493 54.1985 19.6578L54.1393 20.2373L52.217 19.4988L50.2947 18.7604L49.5061 18.7978C49.0724 18.8258 47.7415 18.8725 46.5487 18.9006L44.38 18.9567L42.9013 18.4519C41.9451 18.1154 41.4226 17.891 41.4325 17.8162C41.4423 17.7414 41.6592 17.0123 41.9057 16.1897C43.0295 12.5534 43.2858 9.97334 42.7633 7.57093C42.2901 5.40222 41.1072 3.56068 39.382 2.28002C38.6329 1.7285 36.6711 0.616096 36.474 0.634796C36.4345 0.644142 33.3786 1.35458 29.6917 2.21459ZM131.997 3.38308C135.102 3.83177 137.853 4.74787 139.962 6.06593C141.539 7.04745 143.205 9.56203 143.698 11.7027C143.856 12.3664 143.826 13.7873 143.649 14.5258C143.452 15.339 142.673 16.8627 142.042 17.6386L141.559 18.2556L139.055 18.938C137.675 19.3212 135.575 19.8915 134.383 20.2186C133.19 20.5458 132.155 20.8169 132.086 20.8169C132.007 20.8169 132.066 20.6673 132.234 20.4149C132.657 19.7699 133.397 18.3023 133.683 17.5358C134.639 14.8716 134.461 12.4131 133.14 10.1883C132.559 9.22551 131.208 7.9355 130.114 7.31854C128.754 6.55202 125.924 5.46766 123.992 4.98157C123.49 4.85069 123.056 4.72917 123.026 4.71048C122.977 4.66374 130.331 3.2709 130.715 3.2522C130.863 3.24286 131.435 3.3083 131.997 3.38308ZM36.7993 3.81308C37.8935 4.53287 38.6526 5.38353 39.3032 6.59875C40.5058 8.87964 40.3974 12.329 39.0075 16.3206C38.8004 16.9188 38.5343 17.6106 38.4258 17.8536L38.2188 18.3117L36.6613 18.2556C35.8135 18.2275 32.9941 18.1714 30.4114 18.1434L25.7092 18.0873L26.0838 17.6012C26.5865 16.9749 27.0005 16.171 27.3061 15.2456C28.2328 12.4692 27.6019 8.54311 25.8965 6.43049C25.6697 6.1594 25.5021 5.91636 25.5317 5.89766C25.581 5.85092 35.8628 3.44851 36.0599 3.43916C36.1487 3.42982 36.474 3.59808 36.7993 3.81308ZM24.8121 6.59875C25.7289 7.5055 26.4485 9.05725 26.6949 10.6277C26.8428 11.6373 26.764 14.0397 26.5372 14.7875C26.1429 16.143 25.236 17.4236 24.3783 17.8443C23.8559 18.106 23.0278 18.106 22.4363 17.8443C21.6871 17.5264 21.0267 16.7786 20.5732 15.7503C19.9324 14.3014 19.7451 13.4134 19.7451 11.9364C19.755 10.4968 19.8733 9.88921 20.4746 8.44964C21.214 6.65484 21.973 6.04723 23.4714 6.04723H24.26L24.8121 6.59875ZM123.549 7.02876C124.949 7.20637 126.26 7.53355 127.462 8.00094C129.04 8.60855 130.134 9.30965 130.922 10.2257C131.553 10.9455 131.81 11.3755 132.125 12.2636C132.352 12.8992 132.391 13.1703 132.391 14.0397C132.381 15.6101 131.957 17.1338 130.972 19.1343L130.479 20.1158L129.493 20.3589L128.497 20.6019L128.044 20.2654L127.59 19.9382L126.358 20.2373C125.668 20.4056 125.008 20.5645 124.88 20.6019C124.653 20.658 124.663 20.6299 125.008 20.1999C125.491 19.6017 126.191 18.2275 126.407 17.4517C126.496 17.1151 126.575 16.573 126.585 16.2364C126.595 15.4793 126.378 15.0679 125.629 14.3949C124.416 13.3012 123.046 12.7403 120.631 12.3384C119.793 12.1981 119.073 12.1701 116.786 12.1701C113.425 12.1701 112.774 12.2636 111.956 12.8805C111.69 13.0768 111.433 13.2451 111.384 13.2451C111.335 13.2451 110.014 12.6468 108.446 11.9271C106.879 11.1979 105.39 10.5155 105.134 10.4127C104.868 10.3005 104.661 10.1696 104.661 10.1229C104.671 10.0668 104.769 9.90791 104.888 9.76769C105.134 9.48725 104.612 9.59008 113.681 7.97289C115.85 7.58028 118.068 7.18767 118.61 7.08485C119.842 6.8605 122.031 6.83245 123.549 7.02876ZM107.145 12.2823C108.801 13.0395 110.152 13.6751 110.142 13.6845C110.132 13.6938 108.929 13.9556 107.47 14.264C106.002 14.5725 101.901 15.4419 98.3519 16.1897C89.1052 18.1528 89.3024 18.1154 89.056 18.0125C88.9377 17.9658 87.735 17.5638 86.3746 17.1151C83.0032 16.0121 82.2639 15.7503 82.3132 15.713C82.3526 15.6756 83.8313 15.339 88.4448 14.3201C89.4798 14.0958 91.757 13.591 93.5216 13.1984C95.2861 12.8058 97.5732 12.301 98.5984 12.0766C99.6335 11.8523 101.201 11.497 102.098 11.2914C102.995 11.0857 103.813 10.9175 103.922 10.9175C104.03 10.9081 105.479 11.5251 107.145 12.2823ZM120.434 13.1984C123.007 13.5723 125.018 14.5538 125.56 15.7036C125.698 15.984 125.708 16.1523 125.639 16.5917C125.402 17.9845 124.633 19.3773 123.499 20.443L122.75 21.1441L120.286 21.7236C116.806 22.5556 116.934 22.5276 116.559 22.35C115.426 21.8078 113.543 20.013 112.725 18.6949C111.976 17.4797 111.719 16.7786 111.68 15.8064C111.64 14.8062 111.749 14.3482 112.143 13.8901C112.547 13.4321 113.02 13.2358 114.075 13.0955C115.337 12.9273 118.975 12.9834 120.434 13.1984ZM74.8113 15.4419C77.049 16.1336 80.9232 17.3488 83.4172 18.1528C85.9113 18.9567 90.3473 20.3869 93.2751 21.331C96.2029 22.2752 98.6773 23.0697 98.7758 23.1071C98.8646 23.1445 98.973 23.2848 99.0124 23.4156C99.0617 23.6213 98.8251 42.261 98.7068 47.6641C98.6575 49.571 98.628 49.6739 98.0562 50.0104C97.7703 50.1786 97.5337 50.216 96.6071 50.2534L95.4932 50.2815L95.4734 36.8392L95.4439 23.4063L94.6059 23.1445C93.8666 22.9108 90.3375 21.8639 82.53 19.5456C81.2288 19.153 79.5628 18.6575 78.8333 18.4332C78.1038 18.2088 77.2166 17.9378 76.8617 17.8443C76.5069 17.7414 74.5846 17.1619 72.5736 16.5636C70.5724 15.9653 68.6304 15.3858 68.2657 15.2736C67.5263 15.0586 67.5165 14.9745 68.1769 14.6473C68.4825 14.5071 68.7684 14.4323 69.8134 14.236C70.4245 14.1238 70.9667 14.2547 74.8113 15.4419ZM110.743 15.554C110.733 17.246 111.177 18.7697 112.321 20.9571C112.597 21.4713 113.543 23.5839 114.43 25.6591L116.047 29.4263L116.323 29.3702C116.471 29.3422 116.707 29.2954 116.865 29.2674C117.102 29.2207 117.19 29.2767 117.595 29.7722C118.393 30.7444 119.813 31.6324 121.232 32.0437C121.617 32.1559 121.912 32.2587 121.893 32.2681C121.873 32.2868 121.311 32.4457 120.631 32.6233C119.951 32.8103 118.58 33.1748 117.575 33.4459C116.569 33.7077 115.692 33.9507 115.623 33.9787C115.544 34.0068 115.692 33.745 115.938 33.3992C116.185 33.0627 116.441 32.6046 116.51 32.3803C116.668 31.8661 116.648 30.7724 116.471 30.2957C116.392 30.09 115.041 28.1644 113.474 26.0237C111.907 23.8737 109.866 21.0786 108.949 19.8073C107.401 17.6947 107.224 17.4797 106.79 17.274C106.012 16.9001 105.065 16.9001 103.567 17.2554C102.896 17.4143 100.59 17.9284 98.4505 18.3865C96.3114 18.8538 94.3102 19.2839 94.0145 19.3493C93.4821 19.4708 93.4526 19.4708 92.2401 19.0782C91.5401 18.8538 91.067 18.6669 91.1557 18.6295C91.2346 18.6015 92.9893 18.2182 95.0496 17.7882C101.674 16.386 109.718 14.6753 110.231 14.5538C110.398 14.5071 110.576 14.479 110.635 14.4697C110.714 14.4603 110.743 14.7969 110.743 15.554ZM80.3317 20.3121C87.5576 22.6584 93.5019 24.6028 93.5512 24.6402C93.5906 24.6776 93.6103 30.305 93.6004 37.1477L93.5709 49.5804L92.1415 49.0008C90.7712 48.4399 85.3987 46.2619 72.5243 41.0458C69.2416 39.7184 66.5307 38.5873 66.4912 38.5405C66.3927 38.4096 66.3927 33.0627 66.4912 33.0627C66.5307 33.0627 67.2996 33.3244 68.2065 33.6329C69.1134 33.9507 69.9218 34.1844 70.0105 34.1564C70.0894 34.119 70.2077 33.9881 70.257 33.8572C70.3161 33.7077 70.3555 31.6324 70.3555 28.5196V23.425L69.9415 23.2567C69.7049 23.1632 68.7093 22.808 67.7333 22.4621L65.9392 21.8358L66.0674 21.303C66.1364 21.0132 66.4025 19.7045 66.6687 18.4051C66.925 17.1151 67.1517 16.0495 67.1616 16.0495C67.1714 16.0495 73.096 17.9658 80.3317 20.3121ZM62.6861 17.863L64.983 18.8445L65.3576 20.3121C65.5547 21.116 65.7125 21.7891 65.7026 21.8078C65.6829 21.8171 64.5887 21.9013 63.2579 21.9854C61.927 22.0695 60.0442 22.2004 59.0683 22.2658C58.0923 22.3313 57.2643 22.3687 57.2248 22.35C57.1953 22.3313 57.1558 21.6115 57.1558 20.7421C57.146 19.8821 57.1164 18.6669 57.0868 18.0312L57.0178 16.8908H58.7035H60.3991L62.6861 17.863ZM106.031 17.9284L106.524 18.0219L107.973 20.0036C108.772 21.0973 109.61 22.2284 109.827 22.5369L110.231 23.0791L109.718 23.5278C108.525 24.5748 107.204 24.7337 105.657 24.0139C105.174 23.7895 104.996 23.6119 103.793 22.0976C102.502 20.4617 102.463 20.4243 102.167 20.4804C101.99 20.5084 100.935 20.6206 99.8208 20.7328L97.79 20.9291L96.617 20.5458C95.9762 20.3308 95.3847 20.1345 95.3059 20.1065C95.227 20.0878 95.1876 20.0504 95.2073 20.0317C95.2467 19.9943 97.5732 19.4708 101.851 18.536C103.163 18.2556 104.336 17.9751 104.464 17.9284C104.799 17.8069 105.43 17.8069 106.031 17.9284ZM22.1702 18.7136C22.4955 18.8632 22.8701 18.9473 23.1658 18.9473C23.5207 18.9473 24.2995 19.1717 26.1528 19.8073C27.5329 20.2747 28.6271 20.6954 28.5877 20.7328C28.5384 20.7608 28.0652 20.8823 27.523 21.0039C26.3894 21.2376 26.3992 21.2282 24.9107 22.8641C24.3981 23.425 23.9249 23.8924 23.8559 23.8924C23.7967 23.9017 23.3827 23.7708 22.9391 23.6026C22.3476 23.3876 22.1307 23.2567 22.1012 23.1165C22.0815 23.0043 21.973 21.976 21.8547 20.8169C21.7364 19.6578 21.628 18.6575 21.6083 18.5921C21.5491 18.4425 21.559 18.4425 22.1702 18.7136ZM32.6294 19.0782L37.9329 19.1249L38.6427 19.5736L39.3525 20.0223L38.4061 20.0504C37.4696 20.0784 37.4499 20.0691 36.5035 19.6578L35.5473 19.2371L34.4925 19.4708C33.9109 19.6017 32.7773 19.8541 31.9591 20.0317L30.4804 20.3495L28.5877 19.7139C26.7541 19.1062 26.3302 18.9193 27.0104 18.9941C27.178 19.0128 29.7115 19.0595 32.6294 19.0782ZM36.7993 20.7328L37.8738 21.2095L36.0994 21.5647C35.1234 21.761 33.5265 22.0695 32.5604 22.2565L30.786 22.6117L29.5537 22.1537L28.3116 21.705L29.3467 21.49C29.9185 21.3684 31.4662 21.0226 32.797 20.7234C34.1278 20.4149 35.3305 20.1906 35.4685 20.2093C35.6065 20.228 36.2078 20.4617 36.7993 20.7328ZM42.9408 21.2002L44.1631 21.5928L46.9825 21.4806L49.792 21.3684L52.562 21.9106L55.3223 22.4528L54.6815 22.5276C53.4197 22.6771 52.6409 23.2006 52.1776 24.2008C52.0396 24.5 51.7931 25.36 51.6255 26.1172C51.4678 26.8743 51.2904 27.5287 51.2312 27.5848C51.1129 27.697 49.9596 27.4913 48.8062 27.1641C48.195 26.9959 48.0866 26.9211 47.85 26.5846C47.3965 25.8928 46.391 25.0235 45.4644 24.5093C44.9813 24.2382 43.6407 23.5652 42.4873 23.0043C40.5847 22.0695 40.3678 21.948 40.0327 21.518C39.8257 21.2563 39.6186 21.0226 39.5595 20.9852C39.4609 20.9197 40.013 20.873 41.1762 20.8356C41.5804 20.8169 42.024 20.9104 42.9408 21.2002ZM104.513 24.4345L106.928 27.4913V28.0335C106.928 28.6972 106.731 29.1646 106.278 29.6133C105.795 30.0807 105.519 30.1835 103.182 30.7257C102.068 30.9874 101.073 31.2211 100.974 31.2585C100.787 31.3052 100.787 31.2211 100.846 27.3137C100.925 22.7052 100.915 22.6771 100.225 22.0228L99.7616 21.5834L100.609 21.4993C102.246 21.3217 101.773 20.9665 104.513 24.4345ZM39.8158 22.7052C40.1608 23.1819 40.4861 23.6213 40.5157 23.6867C40.6044 23.8176 40.4171 23.8737 36.3951 24.9487C32.0083 26.1172 31.1014 26.3415 31.062 26.3041C31.0028 26.2574 31.5845 23.425 31.6633 23.3502C31.7028 23.3221 33.3786 22.9763 35.3896 22.5837C37.4105 22.191 39.0863 21.8639 39.1159 21.8545C39.1455 21.8545 39.4609 22.2378 39.8158 22.7052ZM28.6074 22.7519C29.4256 23.0324 30.2142 23.3034 30.3621 23.3595C30.6775 23.4717 30.6775 23.3876 30.2931 25.3506C30.1255 26.1919 30.0269 26.463 29.9283 26.4443C29.327 26.3228 25.1374 24.6028 24.8712 24.3691C24.7431 24.2476 26.7935 22.1069 26.971 22.1723C27.0597 22.2097 27.799 22.4621 28.6074 22.7519ZM65.1309 22.7519C65.1309 22.7987 64.983 23.2661 64.7957 23.8082L64.4704 24.7898L63.11 24.958C62.3608 25.0515 61.7397 25.1076 61.72 25.0889C61.7003 25.0702 61.6313 24.8085 61.5722 24.5C61.513 24.2008 61.375 23.7428 61.2666 23.4997C61.1483 23.2567 61.0793 23.0417 61.099 23.023C61.1187 23.0043 62.0059 22.9295 63.0607 22.8547C64.1155 22.78 65.0126 22.7052 65.0619 22.6958C65.1013 22.6958 65.1309 22.7145 65.1309 22.7519ZM68.7093 23.7428C68.867 23.7989 68.8374 23.8456 68.5417 24.098C67.7629 24.743 67.0137 25.9769 66.7476 27.0519C66.5307 27.9026 66.5405 29.4731 66.7574 30.2583C66.8461 30.5948 67.132 31.2585 67.3982 31.7259C67.6643 32.2026 67.8615 32.5953 67.8516 32.5953C67.8319 32.5953 67.3587 32.427 66.7968 32.2307L65.7716 31.8661L65.604 31.3239C64.7858 28.7439 64.8943 25.9022 65.9096 23.3315L66.1166 22.808L67.3292 23.2474C67.9896 23.4904 68.6107 23.7148 68.7093 23.7428ZM60.1723 23.425C60.5765 23.9858 60.7342 24.6869 60.7244 25.818C60.7047 27.2483 60.1921 29.6507 59.5513 31.2585L59.3936 31.6605H56.9389C55.5884 31.6605 54.4843 31.6231 54.4843 31.5763C54.4843 31.5296 54.5632 31.4361 54.6519 31.3707C54.9477 31.1276 55.5588 30.1555 55.8546 29.417C56.4953 27.8559 56.8502 25.2198 56.5644 24.2195C56.5052 24.0045 56.3376 23.7241 56.1996 23.5839C55.963 23.3689 55.9532 23.3408 56.1207 23.3315C56.2292 23.3315 56.9981 23.2754 57.836 23.21C59.9752 23.0604 59.9062 23.051 60.1723 23.425ZM54.9477 23.7989C55.7264 24.2756 55.8053 24.4719 55.7363 25.7526C55.6673 27.0426 55.204 28.8374 54.7111 29.7161C54.0013 30.9968 52.9169 31.6418 51.6354 31.5389C50.8172 31.4735 49.6441 31.2024 49.6047 31.0622C49.5948 31.0061 49.5258 30.6602 49.4568 30.305C49.3878 29.9405 49.2104 29.2954 49.0625 28.8748C48.7865 28.0989 48.7865 28.0896 48.9935 28.1363C49.1118 28.155 49.6737 28.2672 50.2454 28.3794C50.8172 28.4915 51.3791 28.6037 51.4974 28.6224C51.6946 28.6691 51.7636 28.5944 52.0001 28.0802C52.1579 27.753 52.3649 27.0706 52.4635 26.5659C52.6606 25.4815 52.9564 24.528 53.1831 24.2008C53.3605 23.9391 54.0604 23.4343 54.2379 23.4343C54.3069 23.4343 54.6223 23.5932 54.9477 23.7989ZM45.1982 25.3693C47.3571 26.6687 48.6287 29.1085 48.7372 32.1746C48.7963 33.7544 48.6485 34.5583 48.1063 35.5866L47.7317 36.2877L46.6572 36.5027C46.0657 36.6149 45.5629 36.699 45.5432 36.6709C45.5235 36.6522 45.6418 36.3718 45.8094 36.0633C47.1106 33.6048 47.1698 31.1837 45.9474 29.2394C45.1686 27.9961 43.6899 26.6967 42.093 25.8648C41.6001 25.603 42.024 25.5376 37.3316 26.6126C32.7181 27.6689 33.1519 27.6035 32.452 27.323C32.0774 27.1828 31.9196 27.0706 32.0083 27.0426C32.0872 27.0146 34.0391 26.4817 36.3458 25.8648C41.7874 24.3971 42.0042 24.3411 42.0535 24.313C42.0733 24.2943 41.9944 24.1728 41.8958 24.0232C41.7874 23.883 41.6691 23.7054 41.6198 23.6306C41.5311 23.4904 44.3406 24.8552 45.1982 25.3693ZM23.8559 24.8739C26.9118 26.2948 28.3314 26.8743 30.0368 27.4072C31.6436 27.912 33.3687 28.6131 34.0785 29.0431C34.739 29.445 35.429 30.1741 35.7149 30.7724C36.3853 32.1559 36.7204 34.5303 36.543 36.5494C36.3853 38.2881 36.2078 39.0453 35.8924 39.2883C35.5178 39.5781 33.2899 40.756 33.2307 40.6999C33.2012 40.6718 33.2406 40.5503 33.3195 40.4288C33.8321 39.681 34.2264 37.2038 34.1574 35.2127C34.1081 33.8572 33.8518 33.0253 33.1716 31.9035C32.6294 31.0155 32.2055 30.5387 31.545 30.0713C30.786 29.5198 30.0565 29.2394 28.0159 28.6691C24.3291 27.6596 23.4418 27.323 20.4845 25.7993C18.1284 24.5748 18.1777 24.6402 19.3607 24.2663C19.8634 24.1074 20.9675 23.8737 21.49 23.8176C21.5294 23.8082 22.5941 24.285 23.8559 24.8739ZM113.08 26.9772C114.154 28.4448 115.17 29.8283 115.327 30.0339C115.919 30.8192 115.781 32.1279 115.012 33.0533C114.115 34.1283 112.892 34.7079 109.886 35.5024C108.663 35.8203 106.918 36.2783 105.992 36.5214C105.075 36.7738 103.586 37.1664 102.689 37.4001C101.792 37.6431 100.984 37.8581 100.885 37.8862C100.728 37.9329 100.718 37.774 100.738 35.0537L100.767 32.1839L103.182 31.6137C104.562 31.2866 105.814 30.9313 106.11 30.7911C107.076 30.3237 107.609 29.6413 107.806 28.6224C108.003 27.6315 107.885 27.2483 107.056 26.22C106.662 25.7245 106.337 25.3039 106.337 25.2852C106.337 25.2665 106.84 25.2572 107.451 25.2572C108.466 25.2572 108.604 25.2385 109.127 24.9954C109.432 24.8458 109.925 24.5187 110.211 24.2756L110.724 23.8176L110.921 24.0606C111.029 24.2008 111.995 25.5096 113.08 26.9772ZM69.3698 28.6878L69.3599 32.8289L69.0543 32.5018C68.522 31.9222 68.0094 31.1089 67.7728 30.4639C67.5855 29.9311 67.546 29.6507 67.546 28.6224C67.546 27.295 67.6643 26.7996 68.1967 25.9022C68.453 25.4815 69.2219 24.5561 69.3303 24.5561C69.35 24.5561 69.3698 26.4163 69.3698 28.6878ZM19.0452 26.0517C22.8602 27.9961 24.191 28.5196 28.0948 29.6133C29.0116 29.8657 29.9875 30.1835 30.2635 30.3144C31.3873 30.8565 32.5604 32.2774 33.0237 33.6703C33.211 34.2405 33.2406 34.5022 33.2209 35.7735C33.2012 37.5964 32.9843 39.1107 32.6393 39.7651C32.5012 40.0362 32.2055 40.4007 31.9886 40.5877C31.3774 41.0738 31.0423 41.0551 27.6512 40.3634C24.5656 39.737 22.9785 39.1294 21.2435 37.9142C20.4056 37.3159 18.9368 35.8577 18.5228 35.1846C17.3102 33.259 16.6695 30.492 16.9159 28.2298C17.0736 26.8089 17.4384 25.3974 17.6454 25.3974C17.7144 25.3974 18.3453 25.6965 19.0452 26.0517ZM64.1944 27.5661C64.2042 29.4918 64.2141 29.5759 64.707 31.5389L64.7563 31.7539H62.5678C60.5272 31.7539 60.3794 31.7446 60.4286 31.5857C60.4582 31.5015 60.6357 30.9033 60.8328 30.2676C61.1976 29.0898 61.5032 27.7063 61.651 26.6126L61.7299 26.005L62.9128 25.8554C63.5635 25.7713 64.1155 25.6965 64.1451 25.6872C64.1746 25.6872 64.1944 26.5285 64.1944 27.5661ZM42.5267 27.1641C43.5322 27.7998 44.7447 28.9589 45.1883 29.6974C46.2727 31.5015 46.115 33.6703 44.7447 36.0914C44.4786 36.5588 44.2026 36.9607 44.1237 36.9981C44.0448 37.0355 43.3252 37.2412 42.507 37.4562C41.6987 37.6712 40.22 38.0731 39.2342 38.3536C38.2583 38.634 37.371 38.8583 37.2823 38.8583C37.1542 38.8583 37.1246 38.8023 37.164 38.6433C37.4499 37.587 37.5781 35.0257 37.4203 33.7637C37.2725 32.5579 36.8683 31.0435 36.5233 30.3705C36.2078 29.7628 35.084 28.5476 34.6207 28.3139C34.5123 28.2578 34.4432 28.2017 34.4728 28.1737C34.5024 28.155 35.6065 27.8933 36.9373 27.5941C38.2681 27.3043 39.7566 26.9585 40.2397 26.8463C40.7326 26.7248 41.2452 26.6219 41.3931 26.6219C41.5606 26.6126 41.9747 26.8089 42.5267 27.1641ZM121.814 28.7813C122.326 28.9402 123.125 29.23 123.578 29.4263C124.554 29.8563 126.407 30.9968 126.279 31.0902C126.24 31.1276 125.836 31.2492 125.402 31.3613C123.499 31.8474 121.212 31.4174 119.468 30.2583C118.768 29.7909 118.137 29.1646 118.196 28.9963C118.255 28.8374 120.148 28.3887 120.532 28.4448C120.719 28.4728 121.301 28.6224 121.814 28.7813ZM127.748 32.9505C128.695 34.7733 130.015 36.2596 131.583 37.2412C131.957 37.4749 132.253 37.6899 132.234 37.7086C132.214 37.7179 131.987 37.7927 131.731 37.8675L131.277 37.9983L130.804 37.6525C130.153 37.157 129.572 36.5401 129.059 35.7829C128.428 34.8574 127.985 34.5957 126.851 34.5022C126.112 34.4368 126.546 34.334 120.877 35.9325C116.205 37.2505 114.755 37.6525 111.956 38.4377C110.359 38.8864 108.407 39.4286 107.618 39.6529C103.685 40.7653 101.132 41.4758 100.895 41.5318L100.619 41.5879V40.756C100.619 40.2886 100.649 39.6623 100.678 39.3538L100.738 38.7929L101.497 38.606C101.911 38.4938 103.36 38.1199 104.71 37.7553C106.071 37.3907 108.555 36.7364 110.231 36.297C111.916 35.8483 114.46 35.1753 115.899 34.792C117.338 34.4181 119.734 33.7824 121.222 33.3898C122.711 32.9879 124.604 32.4831 125.412 32.2587C126.23 32.0344 126.96 31.8568 127.038 31.8568C127.127 31.8568 127.403 32.2774 127.748 32.9505ZM50.5905 32.2587C51.3495 32.4083 53.2127 32.4644 60.2315 32.5579L64.8351 32.6233L64.8253 33.4272C64.8253 33.8666 64.7661 35.4464 64.707 36.9327C64.6084 39.1668 64.6084 39.6623 64.7168 39.7651C64.7858 39.8305 64.8844 39.8866 64.9337 39.8866C65.0027 39.8866 74.003 43.4949 75.038 43.9436C75.3239 44.0651 75.2746 44.0838 73.6481 44.4577C72.7116 44.6634 71.8835 44.841 71.7849 44.841C71.6962 44.841 71.2822 44.5886 70.8681 44.2708C68.6008 42.5321 66.6095 41.6253 64.707 41.429L64.0761 41.3636L61.1286 37.7272C58.9992 35.1098 58.1219 34.1003 57.9839 34.0909C57.7769 34.0909 57.2051 34.2124 52.1677 35.2968C50.4919 35.6614 49.0822 35.9605 49.0428 35.9605C49.0033 35.9605 49.0625 35.7829 49.1611 35.5585C49.3977 35.0537 49.6244 33.9787 49.7033 32.9411C49.7427 32.4924 49.8018 32.1279 49.8413 32.1279C49.8708 32.1279 50.2159 32.1839 50.5905 32.2587ZM127.521 35.5024C127.748 35.5772 127.965 35.7922 128.3 36.2783C128.557 36.6429 129.079 37.2599 129.473 37.6525L130.183 38.3536L128.29 38.8957C127.245 39.1855 125.619 39.6529 124.673 39.924C123.726 40.2044 121.991 40.6999 120.828 41.0364C116.914 42.1582 111.828 43.6258 110.083 44.1306C109.136 44.411 107.599 44.8597 106.672 45.1214L104.986 45.6075L104.454 45.3551C103.764 45.028 102.985 44.4577 102.551 43.9623C102.157 43.5042 101.506 42.504 101.506 42.3545C101.506 42.2984 102.384 42.0086 103.458 41.7095C104.523 41.4197 106.268 40.9242 107.323 40.6251C108.377 40.3353 110.329 39.7838 111.66 39.4192C112.991 39.0453 114.785 38.5405 115.653 38.2975C116.52 38.0544 118.255 37.5683 119.497 37.2225C120.749 36.8766 122.701 36.3251 123.835 35.9979C126.003 35.3809 126.822 35.2688 127.521 35.5024ZM134.54 38.5779C134.866 38.662 134.935 38.7555 135.388 39.6342C136.601 41.9618 137.093 43.8127 137.162 46.2899C137.222 48.0847 137.084 49.2626 136.61 51.048C136.275 52.2819 135.516 54.1515 134.816 55.4602C134.294 56.423 134.047 56.7128 133.722 56.7128C133.564 56.7128 133.535 56.6661 133.584 56.4511C133.692 56.0024 133.939 53.7122 134.008 52.5063C134.146 50.3937 134.087 46.2338 133.899 44.7475C133.702 43.2145 133.357 41.3542 133.002 39.9053C132.864 39.3631 132.766 38.9144 132.776 38.9144C132.815 38.8864 134.077 38.5031 134.136 38.4938C134.166 38.4938 134.343 38.5312 134.54 38.5779ZM131.238 40.3166C131.652 41.6814 132.125 44.9438 132.263 47.393C132.391 49.8702 132.184 53.6 131.741 56.5165C131.632 57.2737 131.612 57.3111 131.327 57.3952C131.169 57.442 130.361 57.7037 129.552 57.9841C128.734 58.2552 126.851 58.8815 125.363 59.377C123.874 59.8631 122.169 60.4333 121.567 60.6389C120.976 60.8446 117.752 61.9103 114.42 63.0227C111.088 64.1257 108.121 65.1166 107.845 65.2194C107.559 65.3222 107.323 65.369 107.323 65.3316C107.323 65.2942 107.431 64.6305 107.569 63.864C107.963 61.5924 108.092 60.1061 108.101 57.4139C108.121 54.7872 108.003 53.3382 107.609 50.8237C107.421 49.6365 106.987 47.4117 106.869 47.0658C106.82 46.8975 106.909 46.8695 111.66 45.4954C118.708 43.4669 122.839 42.261 128.862 40.5036C130.006 40.1764 130.972 39.9147 131.031 39.924C131.08 39.9334 131.179 40.111 131.238 40.3166ZM66.4222 42.691C66.8363 42.8312 67.4869 43.121 67.8714 43.336C69.3303 44.1399 71.5188 45.8132 72.337 46.7386L72.8397 47.3088L72.613 47.4584C72.4848 47.5332 72.3271 47.6641 72.2483 47.7482C72.13 47.8697 71.9525 47.7295 70.7203 46.5704C69.1627 45.1027 67.4672 43.8501 65.9491 43.0369C65.3872 42.7377 64.9337 42.4573 64.9337 42.4105C64.9337 42.289 65.5942 42.4105 66.4222 42.691ZM101.378 43.9249C101.94 44.7382 102.896 46.8041 103.429 48.3465C104.878 52.5624 105.647 57.3391 105.647 62.2655V64.4061L105.193 66.1729C104.947 67.1451 104.76 67.9583 104.769 67.9677C104.789 67.9864 107.116 67.2666 109.935 66.3879C126.23 61.2653 131.297 59.6855 131.317 59.7229C131.484 59.9005 131.563 60.1716 131.465 60.2276C131.405 60.2557 130.528 60.5548 129.513 60.8726C127.354 61.5737 125.53 62.1627 121.764 63.3966C120.246 63.892 118.334 64.5183 117.516 64.7801C116.688 65.0512 112.981 66.257 109.265 67.4629L102.512 69.6597L101.428 73.7167C100.826 75.9415 100.324 77.783 100.304 77.7923C100.284 77.811 100.146 77.8578 99.9883 77.8952C99.7419 77.9513 99.7222 77.9326 99.7715 77.7736C100.363 76.0162 100.59 73.3427 100.284 71.7442C100.195 71.2675 100.087 70.8188 100.048 70.7627C99.9785 70.6505 99.5842 70.7627 92.8808 72.7445C91.3627 73.1932 90.0417 73.5858 89.953 73.6045C89.8544 73.6325 89.7756 73.698 89.7756 73.7447C89.7756 73.7914 90.0417 75.3432 90.3671 77.1847C90.6924 79.0263 90.9585 80.5874 90.9585 80.6434C90.9585 80.7369 90.6726 80.8678 90.229 80.98C90.0023 81.0267 89.9826 80.9893 89.8347 80.363C89.2827 78.0821 89.0264 76.3528 88.8785 74.0064C88.7799 72.5575 88.7997 70.2299 88.9081 70.1271C88.9278 70.1084 89.7657 69.8934 90.7614 69.6597C91.7669 69.4166 92.8019 69.1175 93.0583 68.9773C93.6103 68.6968 94.1131 68.2014 94.4088 67.6499C94.9411 66.659 95.0397 61.9477 94.5961 59.0031C94.4384 57.9374 94.0046 55.937 93.8666 55.6285C93.5906 54.9928 92.4175 54.3478 91.3134 54.2263C90.8107 54.1702 90.6825 54.1982 89.3418 54.7404C88.5631 55.0489 87.873 55.3106 87.8139 55.3106C87.7646 55.3106 87.666 55.0676 87.6068 54.7685C87.1337 52.553 86.2957 50.6273 84.9452 48.683C84.6199 48.2062 84.3636 47.7949 84.3833 47.7762C84.403 47.7575 86.6408 48.6456 89.3517 49.7393C93.8765 51.5715 94.3792 51.7584 95.296 51.908C97.8295 52.3006 99.5053 51.7865 100.235 50.3937C100.462 49.9543 100.471 49.8421 100.531 47.2247C100.57 45.729 100.6 44.0932 100.609 43.579C100.629 42.719 100.639 42.6629 100.757 42.9247C100.826 43.0742 101.112 43.5323 101.378 43.9249ZM65.3477 43.7193C66.9447 44.4951 69.3599 46.346 70.9076 47.9819L71.5582 48.6643L71.016 49.2999C70.3851 50.0571 70.257 50.2721 70.257 50.5806C70.257 50.7395 70.0992 50.9452 69.7049 51.2724C69.1726 51.7117 69.1529 51.7491 69.212 52.0669C69.281 52.4221 69.6556 52.9082 69.9809 53.0765C70.1387 53.1606 70.2865 53.1139 70.7499 52.8428C71.2526 52.5437 71.3709 52.5156 71.7751 52.5624C72.1201 52.6091 72.337 52.5811 72.7313 52.4221C73.0073 52.31 73.2439 52.2258 73.2636 52.2445C73.5298 52.5343 74.8113 55.3948 75.4225 57.0681C77.4236 62.602 77.8081 68.9025 76.4083 73.0436C75.9055 74.5112 74.4466 77.0912 73.3819 78.3906L72.958 78.9141L71.8244 79.0823C71.2033 79.1758 70.3654 79.316 69.9612 79.3815C69.5571 79.4469 69.212 79.4937 69.1923 79.475C69.1726 79.4563 69.3303 79.1945 69.5472 78.8954C70.0894 78.1382 70.9667 76.4556 71.3413 75.4554C71.7356 74.3897 72.1694 72.7258 72.3961 71.3703C72.6426 69.9214 72.6426 65.6588 72.3961 63.8266C71.9229 60.2931 71.0259 57.442 69.419 54.4226C67.6348 51.0574 65.5843 48.496 63.248 46.7106C62.3016 45.9908 60.7835 45.0467 60.054 44.7382C59.8372 44.6447 59.6794 44.5606 59.709 44.5606C59.7386 44.5512 60.8032 44.2988 62.0749 43.9997C63.3466 43.7006 64.4704 43.4482 64.5788 43.4482C64.6774 43.4388 65.0224 43.5697 65.3477 43.7193ZM79.3558 45.6917C80.7753 46.2619 82.0963 46.8041 82.2836 46.8975C82.6286 47.0658 82.6286 47.0658 82.3822 47.1219C81.909 47.2341 79.8487 47.636 77.6701 48.0567L75.4619 48.4867L75.038 48.0754C74.8014 47.8604 74.486 47.6267 74.3283 47.5612C74.1804 47.5051 73.9537 47.3182 73.8452 47.1499C73.7269 46.9817 73.3819 46.561 73.0763 46.2245L72.5243 45.6075L74.4761 45.1682C75.5408 44.9345 76.4674 44.7195 76.5167 44.7008C76.5759 44.6821 76.6449 44.6634 76.6942 44.6634C76.7336 44.654 77.9264 45.1214 79.3558 45.6917ZM58.7035 45.1214C60.0738 45.6169 61.5919 46.5143 63.0311 47.6641C66.8757 50.7489 70.1978 56.6194 71.1836 62.0879C72.0807 67.0142 71.8342 71.5853 70.4738 75.1562L70.1288 76.0817L70.0007 75.7919C69.9316 75.633 69.7641 75.3993 69.6261 75.2684C69.3007 74.9693 68.7783 74.9599 67.4475 75.2497C62.9523 76.2406 63.1494 76.1845 62.8438 76.4836L62.5481 76.7641L62.6072 76.4836C62.7058 75.9788 62.8537 74.3523 62.9227 72.9314C63.0114 70.8375 62.7255 67.4816 62.2622 65.2849C60.7835 58.2646 55.3913 50.0197 50.6398 47.4865C50.3637 47.3462 50.1469 47.206 50.1469 47.178C50.1469 47.1499 50.7581 46.9536 51.5073 46.7293C52.2466 46.5049 53.5478 46.1123 54.3858 45.8693C55.8546 45.4299 57.7276 44.9532 58.0332 44.9438C58.112 44.9345 58.4176 45.0186 58.7035 45.1214ZM104.168 46.1964C104.937 46.561 104.868 46.4301 105.302 48.3184C105.814 50.5993 106.169 53.2541 106.278 55.7313C106.337 56.9933 106.317 56.9372 105.883 54.2824C105.469 51.7771 104.405 48.0473 103.616 46.3647C103.498 46.0936 103.409 45.8693 103.439 45.8693C103.458 45.8693 103.793 46.0188 104.168 46.1964ZM49.9497 48.1315C51.3298 48.8606 53.1141 50.3563 54.4252 51.8519C56.7221 54.4787 59.088 58.4889 60.3005 61.8261C61.5426 65.2007 62.0355 68.4444 61.9468 72.5575C61.8778 75.661 61.5524 77.9045 60.892 79.905L60.5962 80.8024L60.0639 80.9145C59.6499 80.9987 59.502 81.0734 59.4527 81.2324C59.4133 81.3445 59.157 81.9054 58.8711 82.4756L58.3585 83.5039L57.4318 83.803C56.9192 83.9619 56.1306 84.1583 55.6771 84.233C54.8294 84.392 52.7493 84.4387 52.5423 84.3078C52.4536 84.2517 52.5325 84.0554 52.8578 83.5693C54.3858 81.2324 55.135 78.671 55.48 74.6141C55.8546 70.1831 54.8787 64.8362 52.8184 60.0033C50.9256 55.5537 47.2191 50.9732 44.3011 49.4589C44.035 49.3186 43.4139 49.0756 42.9309 48.9073C42.0733 48.6175 42.0535 48.6082 42.3296 48.5054C42.8422 48.3091 44.0744 48.0286 45.0208 47.8791C45.839 47.7575 46.0361 47.7575 46.6276 47.8791C47.2684 48.0099 47.3374 48.0006 48.0077 47.7949C48.8062 47.5519 48.8949 47.5706 49.9497 48.1315ZM83.9003 48.7578C85.4085 50.8797 86.4929 53.3476 86.7591 55.2639L86.8281 55.7313L85.8817 56.0959C85.3592 56.2922 84.9255 56.4417 84.9058 56.423C84.8861 56.4043 84.7776 56.0585 84.6593 55.6565C84.0087 53.3943 82.8751 51.3939 81.1204 49.4028C80.6669 48.8886 80.312 48.4586 80.3317 48.4399C80.3514 48.4212 80.9823 48.2904 81.7414 48.1315C82.5005 47.9819 83.1511 47.851 83.1806 47.8417C83.2102 47.8417 83.5355 48.253 83.9003 48.7578ZM74.1607 48.4773C74.7423 48.8139 74.9887 49.7299 74.6536 50.3376C74.4367 50.7302 74.1311 50.9171 73.6777 50.9171C72.5046 50.9171 71.9525 49.3934 72.82 48.5615C73.1552 48.2436 73.6974 48.2062 74.1607 48.4773ZM21.3125 49.3747C23.0475 49.7673 25.3148 50.2721 26.3401 50.5058C27.3751 50.7395 28.2624 50.9358 28.3116 50.9545C28.3708 50.9639 28.1441 51.1041 27.8286 51.2537C27.178 51.5528 26.971 51.7678 27.1287 52.0015C27.1878 52.0763 28.4201 52.7213 29.8692 53.4224L32.521 54.6937L35.6755 54.4413L38.83 54.1889L42.3887 56.6848C44.3504 58.0496 46.0558 59.2555 46.1741 59.3676C46.2924 59.4798 46.9233 60.8353 47.6232 62.5085C48.7175 65.1072 48.9048 65.6307 49.2104 66.9768C50.3835 72.1182 50.7778 75.9695 50.7876 82.1858V86.2054L50.2356 87.7946C49.93 88.6639 49.6145 89.6735 49.5455 90.0381C49.3878 90.7953 48.0274 93.4407 47.7218 93.5716C47.1106 93.8333 44.5673 94.7307 44.518 94.7027C44.4786 94.684 44.449 94.1979 44.4391 93.6183C44.4293 93.0388 44.38 91.2346 44.3307 89.6174C44.2814 88.0002 44.1927 84.822 44.1237 82.5598C44.0645 80.2976 43.9364 75.9601 43.8378 72.9314L43.6604 67.4162L42.9999 66.014C42.645 65.2381 41.8958 63.6396 41.3536 62.4524L40.358 60.3024L39.4609 59.9098C38.968 59.6948 37.233 58.9283 35.6065 58.1991C33.9799 57.4794 32.0478 56.6194 31.3183 56.2922C30.5888 55.9743 28.9031 55.2265 27.5723 54.6282C21.1055 51.7397 19.272 50.9265 17.3004 50.0571C16.1174 49.5336 15.1711 49.0943 15.1908 49.0756C15.2598 49.0102 17.8623 48.5989 18.0101 48.6362C18.089 48.6456 19.5776 48.9821 21.3125 49.3747ZM79.9768 49.4589C81.8203 51.3752 83.1412 53.6187 83.8017 55.9557L84.0383 56.8063L83.6144 56.9839C83.3877 57.0774 83.0328 57.2176 82.8258 57.2831C82.4117 57.4326 82.4019 57.3578 82.9145 58.7226C84.058 61.8355 84.058 65.8738 82.8849 70.3888L82.6089 71.4825L83.0821 71.4264L83.5553 71.3703L83.4172 71.8564C83.0722 73.0997 82.0864 74.5486 81.1204 75.2404C80.7458 75.5114 80.3712 75.6423 79.0995 75.9695C78.2419 76.1845 77.5222 76.3434 77.4927 76.3247C77.4729 76.306 77.6799 75.8667 77.9461 75.3525C78.7249 73.8662 79.3459 71.9406 79.6614 70.0149C80.0951 67.4068 79.898 62.8451 79.2178 59.5172C78.5967 56.4604 77.4236 53.0858 76.1224 50.6367C75.876 50.1786 75.6788 49.6926 75.6788 49.571C75.6788 49.3654 75.7379 49.328 76.2506 49.2345C76.5562 49.1691 77.2561 49.0289 77.7982 48.9073C78.3404 48.7858 78.8826 48.6923 79.0009 48.683C79.1488 48.6736 79.4445 48.9073 79.9768 49.4589ZM10.2816 49.3373C10.873 49.5991 11.9771 50.0852 12.7362 50.403C13.4952 50.7302 15.4668 51.5715 17.1229 52.2726C18.7791 52.983 20.5535 53.7402 21.0661 53.9552C21.5787 54.1702 23.3531 54.9274 25.0092 55.6378C28.5482 57.1522 30.5888 58.0215 32.3534 58.7694C33.0631 59.0685 34.4334 59.6574 35.4093 60.0781C36.3853 60.4894 37.5879 61.0035 38.0709 61.2092L38.9582 61.5831L40.4073 64.7333L41.8564 67.8836L41.9057 69.6129C41.9352 70.5664 41.9845 72.2023 42.0141 73.2586C42.0733 75.5301 42.3296 84.2517 42.4084 86.7196C42.438 87.6731 42.507 90.0007 42.5661 91.8983C42.6253 93.7866 42.6352 95.3757 42.5859 95.4131C42.5464 95.4505 42.3 95.5533 42.0535 95.6468C41.6494 95.787 41.5114 95.9086 40.9396 96.7125L40.289 97.6099L39.0765 98.0118C38.416 98.2268 37.8442 98.4044 37.8146 98.4044C37.7752 98.4044 37.8344 98.1521 37.9329 97.8342C38.1104 97.2827 38.1202 96.7405 38.1202 83.2141V69.1736L37.8344 68.5099C36.957 66.5094 36.2374 65.1914 35.1432 63.6303L34.463 62.6487L31.8802 61.0409C28.7454 59.0778 25.9162 57.4326 24.0727 56.4791C19.8141 54.2917 18.7002 53.7589 15.2006 52.2445C13.0122 51.3004 8.07339 49.4215 7.7678 49.4215C7.50164 49.4215 7.77766 49.2812 8.42828 49.0849C8.79302 48.9728 9.11833 48.8793 9.1479 48.8699C9.17748 48.8606 9.69009 49.0756 10.2816 49.3373ZM42.4084 49.6458C44.4589 50.2628 46.2629 51.693 48.4119 54.3946C51.8917 58.7694 54.0802 64.6305 54.5928 70.9684C54.8096 73.698 54.3463 77.811 53.5478 80.12C53.3112 80.8024 52.6705 82.2326 52.5916 82.2326C52.5719 82.2326 52.5522 81.1295 52.5423 79.7741C52.5128 75.9041 52.2367 72.9501 51.5763 69.3792C50.9355 65.9579 50.6792 65.1072 49.1907 61.5644L47.8303 58.33L46.0066 57.0587C40.8607 53.4691 40.5058 53.2074 39.5989 52.2913C39.0962 51.7865 38.3963 51.1789 38.0512 50.9545C37.7161 50.7208 37.4302 50.5152 37.4302 50.4965C37.4302 50.4871 37.7555 50.3937 38.1498 50.3095C38.8892 50.1319 39.0567 50.0665 39.7961 49.6084C40.2003 49.356 40.2988 49.328 40.9297 49.3654C41.3142 49.3934 41.9747 49.5149 42.4084 49.6458ZM8.64515 51.5247C10.183 52.0763 12.9629 53.1793 14.4613 53.815C15.0824 54.0861 15.7921 54.3852 16.0386 54.488C16.699 54.7685 20.1099 56.3857 21.0661 56.8811C23.9643 58.3487 28.1933 60.7792 31.3774 62.7983C33.2307 63.9668 33.28 64.0042 33.7236 64.6866C33.9701 65.0605 34.1771 65.4064 34.1771 65.4438C34.1771 65.4812 33.211 65.0418 32.0379 64.4622C30.855 63.892 28.2032 62.602 26.1429 61.6018C18.9269 58.087 16.2456 56.7876 13.3276 55.3574C6.78201 52.1511 5.84551 51.7211 5.38219 51.7211C4.98787 51.7117 4.85972 51.7584 4.59356 51.9921C4.42598 52.1417 4.2091 52.4408 4.11052 52.6465C3.9528 53.0017 3.9528 53.7495 4.06123 65.8738C4.19924 79.6806 4.15981 78.8954 4.68228 79.8582C4.94844 80.3443 5.19489 80.55 6.13139 81.0361C6.56514 81.2604 8.2114 82.1391 9.77881 82.9711C11.3561 83.8124 14.2149 85.3454 16.1371 86.3644C18.0594 87.3926 19.9719 88.4115 20.376 88.6359C20.7802 88.8509 21.6674 89.3276 22.3476 89.6829C23.0278 90.0474 24.3981 90.7859 25.4036 91.3187C27.4441 92.4124 28.5187 92.9827 33.0434 95.3944C35.4192 96.6657 36.2078 97.1238 36.2275 97.2734C36.2768 97.5444 35.7051 98.6381 35.291 99.0682C34.6798 99.7132 34.6601 99.7038 31.6042 98.2923C28.775 96.9742 23.9446 94.5812 22.2885 93.6744C21.7463 93.3753 21.0069 92.9733 20.6225 92.7677C17.1624 90.9168 11.9673 87.7478 7.04817 84.4948L5.68779 83.588L5.09631 82.5598C4.36683 81.2698 3.80493 80.0452 3.47962 79.0356L3.23317 78.2597L3.12473 71.4358C3.07544 67.6779 3.00644 63.6209 2.97687 62.415C2.94729 61.2092 2.90786 58.5731 2.86843 56.5726L2.80928 52.9269L3.07544 52.3754C3.36132 51.7678 4.06123 50.7115 4.3964 50.3843L4.60342 50.1786L6.00324 50.6273C6.78201 50.8797 7.96496 51.2817 8.64515 51.5247ZM75.8168 52.0669C77.2659 55.1517 78.2911 58.6946 78.6855 61.9944C79.3656 67.6779 78.9122 71.4545 77.1575 74.8945C76.497 76.1845 76.0534 76.8108 75.7872 76.8108C75.6295 76.8108 75.6887 76.6519 76.1815 75.7078C77.5715 73.0997 77.9954 71.3703 78.1137 67.977C78.2024 65.0979 77.8771 62.2 77.1673 59.5265C76.6153 57.4981 75.2943 54.0954 74.3776 52.3848C74.2198 52.0763 74.1015 51.8239 74.1213 51.8145C74.141 51.7958 74.2888 51.7397 74.4663 51.6743C74.6339 51.6089 74.8705 51.4593 74.9986 51.3284C75.1169 51.2069 75.2549 51.1041 75.2845 51.1041C75.3239 51.1041 75.5605 51.5341 75.8168 52.0669ZM35.3403 51.5434C36.1289 51.8052 36.9373 52.2726 37.6668 52.8802C38.2385 53.3663 38.209 53.385 36.888 53.4785C36.405 53.5158 35.3107 53.6093 34.4827 53.6748C33.6448 53.7495 32.9547 53.7963 32.9448 53.7869C32.935 53.7776 32.8068 53.5439 32.659 53.2635C32.2844 52.5717 32.0281 52.2539 31.5845 51.9454L31.2197 51.693L31.5253 51.6276C31.6929 51.5995 32.0675 51.5715 32.3435 51.5715C32.6195 51.5715 33.1617 51.4874 33.5363 51.3939C34.2954 51.1976 34.3151 51.1976 35.3403 51.5434ZM5.81594 52.7119C5.95395 52.8148 5.99338 53.2728 6.13139 55.8715C6.21025 57.5448 6.36798 60.5268 6.47642 62.5085C6.58485 64.4903 6.69329 66.5468 6.72286 67.089C6.75244 67.6312 6.82144 68.8277 6.87073 69.7531C7.00874 72.0901 7.36363 79.1852 7.36363 79.5778C7.36363 79.9704 7.18618 79.8676 11.4054 82.0176C13.2192 82.943 15.7921 84.2611 17.1229 84.9435C21.2041 87.0374 24.2108 88.5798 25.5514 89.2716C26.2612 89.6268 27.0991 90.0568 27.4244 90.225C27.7497 90.3933 29.3467 91.2159 30.9733 92.0479C32.5998 92.8798 34.4728 93.8427 35.1432 94.1792L36.3458 94.7962V95.4318C36.3458 95.7777 36.3064 96.0675 36.2571 96.0675C36.198 96.0675 34.9756 95.4318 33.5166 94.6559C32.0675 93.8801 29.4552 92.4872 27.7202 91.5524C25.9852 90.627 24.0333 89.5894 23.3827 89.2435C22.7321 88.8976 20.6521 87.7759 18.7495 86.7663C16.8568 85.7474 13.3276 83.8685 10.9125 82.5785C8.49728 81.2978 6.34826 80.1387 6.13139 79.9984C5.67793 79.7087 5.3329 79.26 5.20475 78.7832C5.08645 78.3719 5.01745 74.0532 4.93859 62.2281L4.87944 53.1139L5.09631 52.8521C5.32304 52.5811 5.55963 52.5343 5.81594 52.7119ZM7.57064 53.5345C7.89595 53.6935 8.18183 53.8711 8.20155 53.9365C8.22126 54.0019 8.25084 59.7229 8.28041 66.6683C8.30013 73.6045 8.30998 79.1571 8.29027 79.0076C8.27055 78.8486 8.19169 77.4184 8.10297 75.8293C8.0241 74.2308 7.93538 72.5482 7.90581 72.0901C7.87624 71.6227 7.78752 70.0055 7.70865 68.4912C7.62979 66.9768 7.54107 65.3129 7.51149 64.7988C7.48192 64.2846 7.41292 63.004 7.36363 61.9477C7.30448 60.8913 7.21576 59.2274 7.16647 58.2552C7.11718 57.2737 7.04817 55.8435 7.0186 55.0769C6.98903 54.3011 6.93974 53.5813 6.91016 53.4598C6.89045 53.3476 6.89045 53.2541 6.92002 53.2541C6.94959 53.2541 7.24533 53.385 7.57064 53.5345ZM16.009 57.6383L20.4648 59.807L20.514 60.3866C20.5436 60.7044 20.6422 62.144 20.7211 63.5835C20.9774 68.0518 21.2534 72.5201 21.3224 73.3614L21.3815 74.1654L20.6028 74.8104C20.169 75.1656 19.1241 76.0349 18.2763 76.7454L16.7385 78.0354L13.0615 78.3626C11.0505 78.5402 9.36478 78.6523 9.32535 78.615C9.28591 78.5682 9.22677 73.081 9.18734 66.3973L9.11833 54.2637L10.3309 54.8713C11.0012 55.1985 13.5544 56.4511 16.009 57.6383ZM91.9443 55.2733C92.1908 55.348 92.5555 55.5256 92.7428 55.6846C93.0484 55.9183 93.1174 56.0491 93.2554 56.6848C93.9553 59.7789 94.1821 63.6957 93.8173 66.3131C93.6694 67.3694 93.2258 68.0144 92.3978 68.3416C91.895 68.5379 88.7701 69.239 88.3758 69.239C88.1786 69.239 88.0012 69.2764 87.9814 69.3231C87.9716 69.3792 87.7547 69.454 87.5181 69.5101L87.0942 69.5942L87.1534 69.2577C87.597 66.8927 87.6463 66.3505 87.6463 64.0977C87.6561 62.2935 87.6167 61.6205 87.4787 60.9194C87.2421 59.7322 86.8971 58.5824 86.483 57.6663L86.1479 56.9091L87.252 56.4885C87.8533 56.2548 88.9475 55.8341 89.677 55.5537C91.0571 55.0115 91.067 55.0115 91.9443 55.2733ZM85.4973 57.6196C86.8971 60.695 87.1731 64.3875 86.3253 68.6407C86.207 69.211 86.0789 69.7158 86.0493 69.7718C85.9902 69.856 83.9496 70.3795 83.8904 70.3234C83.8707 70.314 83.9693 69.7999 84.1073 69.1829C84.4819 67.4442 84.6593 65.7896 84.6593 64.0509C84.6593 62.2281 84.4918 60.9287 84.0383 59.3302C83.8806 58.7413 83.7228 58.1711 83.6933 58.0683C83.6637 57.9094 83.7721 57.8346 84.4227 57.5822C84.8466 57.4233 85.2212 57.2924 85.2607 57.2831C85.3001 57.2737 85.4085 57.4326 85.4973 57.6196ZM22.2096 60.6576L22.8602 60.9661L22.8011 62.1813C22.7617 62.8451 22.7124 63.7144 22.6926 64.0977C22.6631 64.4809 22.5743 66.3318 22.4955 68.2107C22.4068 70.0897 22.3082 71.8564 22.2589 72.1369C22.1997 72.5949 22.18 72.5014 22.1209 71.389C21.973 68.9399 21.6576 63.9388 21.559 62.6487C21.4506 61.2185 21.4308 60.3585 21.5097 60.3585C21.5294 60.3585 21.8449 60.4987 22.2096 60.6576ZM132.322 61.0783C132.293 61.1718 132.155 61.8355 132.017 62.5553C131.465 65.3503 131.297 66.1636 131.267 66.1916C131.248 66.2103 130.41 66.4814 129.404 66.7992L127.581 67.3694L127.354 67.9116L127.137 68.4444L121.646 70.1925C118.62 71.1553 112.892 72.9782 108.92 74.2495C104.947 75.5114 101.674 76.5304 101.654 76.5117C101.635 76.493 101.98 75.1095 102.423 73.4362L103.241 70.4075L103.577 70.2579C103.764 70.1738 104.789 69.8279 105.844 69.4821C106.899 69.1455 113.247 67.0796 119.941 64.9016C126.634 62.7142 132.174 60.9287 132.243 60.9287C132.322 60.9194 132.352 60.9848 132.322 61.0783ZM25.7979 63.8733C25.7979 67.8742 26.5274 72.0621 27.7793 75.2964C27.9469 75.7265 28.0652 76.091 28.0455 76.1004C28.0356 76.1191 27.3554 75.7919 26.5372 75.3899C25.7289 74.988 24.6248 74.4364 24.1023 74.1747C23.57 73.913 23.1362 73.6699 23.1362 73.6325C23.1362 73.3988 23.639 63.1909 23.6883 62.3964L23.7573 61.3961L24.7727 61.8822L25.7979 62.3683V63.8733ZM28.7552 64.8268C28.7552 68.6221 29.741 73.0249 31.407 76.7641C31.683 77.381 31.9098 77.9232 31.9098 77.9606C31.9098 78.0073 31.338 77.7549 30.6381 77.4091L29.3566 76.7734L29.0017 75.8854C27.5132 72.2116 26.7837 68.4818 26.7837 64.5651V62.8824L27.7695 63.3498L28.7552 63.8172V64.8268ZM31.2099 65.0231L32.5702 65.6775L32.6294 67.0142C32.7871 70.3701 33.6842 73.4175 35.4685 76.708L36.3458 78.3252V79.2506C36.3458 79.7647 36.3162 80.1761 36.2867 80.1761C36.2571 80.1761 35.5966 79.8582 34.808 79.4656L33.3786 78.7552L32.9054 77.8484C31.5056 75.1936 30.3424 71.4358 29.8988 68.1173C29.6917 66.5468 29.5932 64.3781 29.7312 64.3781C29.7903 64.3781 30.4508 64.6679 31.2099 65.0231ZM35.3009 67.3601C35.429 67.6031 35.7248 68.2107 35.9416 68.7155L36.3458 69.641L36.3261 73.0156L36.2965 76.3902L36.0107 75.876C35.0446 74.1373 34.1574 71.4732 33.7433 69.0521C33.6448 68.4912 33.487 66.3225 33.5363 66.2477C33.5659 66.2103 33.9208 66.3412 34.325 66.5468C34.9657 66.8646 35.1037 66.9768 35.3009 67.3601ZM87.9617 72.679C87.9716 74.7356 88.0899 76.2873 88.3462 77.7456C88.3955 78.0073 88.356 77.9606 88.1589 77.5212C87.7547 76.6332 87.0351 75.848 86.2859 75.4834C85.6747 75.1749 84.7875 75.203 83.1905 75.5675C82.4709 75.7358 81.8498 75.876 81.8203 75.876C81.8005 75.876 81.9878 75.6797 82.2343 75.4367C83.2891 74.4364 83.9989 73.2399 84.3439 71.8845C84.4425 71.4919 84.5805 71.1273 84.6593 71.0899C84.8368 70.9964 87.4885 70.3701 87.7547 70.3701C87.942 70.3608 87.9519 70.4262 87.9617 72.679ZM99.387 71.9219C99.5152 72.249 99.5546 74.1654 99.4462 75.0347C99.3772 75.5208 99.2293 76.2873 99.1209 76.7454L98.904 77.5586L97.8098 77.8858C97.2183 78.0541 96.1241 78.3719 95.3946 78.5682C94.6651 78.7739 93.5216 79.101 92.8512 79.288C92.1809 79.4843 91.6091 79.6058 91.5697 79.5778C91.4711 79.4843 90.7712 74.343 90.8402 74.2682C90.8797 74.2401 91.4218 74.0625 92.0429 73.8849C94.0145 73.324 98.5885 71.9686 98.8448 71.8658C99.1997 71.7349 99.3082 71.7442 99.387 71.9219ZM24.2403 76.0723C25.4529 76.6893 27.0597 77.5212 27.8187 77.9045C30.6578 79.3534 32.0379 80.0639 35.084 81.6343L36.3458 82.2793V86.1587V90.0474L35.3403 90.7392C34.7883 91.1224 34.2855 91.4683 34.2165 91.5057C34.1574 91.5431 32.0576 90.5148 29.2876 89.0939C26.6358 87.7198 22.18 85.4296 19.3903 83.99C16.6005 82.5504 14.2937 81.3539 14.274 81.3352C14.2543 81.3258 14.4022 81.1763 14.5895 81.0267C14.7768 80.8678 16.4822 79.4282 18.365 77.8391C20.2577 76.2499 21.8547 74.9412 21.9237 74.9412C21.9829 74.9412 23.0278 75.446 24.2403 76.0723ZM68.3248 76.1191C68.453 76.4369 68.3741 76.736 68.0685 77.0352C67.7826 77.3062 67.5855 77.381 66.4124 77.6521C65.328 77.8952 65.0323 77.9326 64.8154 77.8484C64.4408 77.7082 64.4704 77.4745 64.914 76.9978C65.2689 76.6145 65.3083 76.5958 66.7081 76.2967C67.4967 76.1284 68.1671 75.9788 68.1967 75.9788C68.2361 75.9695 68.2952 76.0349 68.3248 76.1191ZM85.793 76.2406C86.5915 76.5865 87.3012 77.5399 87.5083 78.5682C87.7449 79.6806 87.4688 80.8865 86.8379 81.5128C86.6211 81.7278 85.6648 82.1111 85.5761 82.0176C85.5564 82.0082 85.5958 81.8026 85.655 81.5782C85.8028 80.9613 85.7634 79.5591 85.586 78.9141C85.3888 78.2036 84.8565 77.1473 84.4523 76.6706L84.1369 76.2967L84.5706 76.1938C85.1719 76.0349 85.3395 76.0443 85.793 76.2406ZM83.5553 76.9978C84.265 77.8391 84.6495 78.8954 84.6495 79.961C84.6495 80.8024 84.0383 82.8589 83.7426 83.0365C83.6933 83.0739 83.4271 83.1487 83.1511 83.2141L82.668 83.345L82.9243 83.0178C84.058 81.6156 84.1073 79.531 83.0624 77.8765C82.8751 77.5867 82.5498 77.2221 82.3427 77.0632L81.9484 76.7641L82.3427 76.6519C83.0229 76.4649 83.1314 76.493 83.5553 76.9978ZM78.2024 77.4371C77.7982 77.9886 77.5518 78.8673 77.5518 79.746V80.5032L74.1903 80.9519C72.337 81.195 70.809 81.3819 70.7893 81.3726C70.7499 81.3352 71.016 80.1761 71.0752 80.12C71.1047 80.0919 71.6469 79.9891 72.2877 79.8863C73.2538 79.746 73.4903 79.6713 73.6382 79.503C73.7368 79.3815 74.0621 78.9795 74.3677 78.615C74.8113 78.0541 74.9887 77.9139 75.3239 77.8297C76.8716 77.4091 78.3996 77.0352 78.4193 77.0539C78.439 77.0632 78.3404 77.2408 78.2024 77.4371ZM81.3569 77.4278C82.6779 78.1382 83.3088 80.5126 82.5596 81.9054C82.0963 82.7467 81.564 83.0739 80.6275 83.0739C79.4544 83.0739 78.8629 82.3167 78.5376 80.3817C78.1433 78.0728 79.6417 76.5023 81.3569 77.4278ZM68.8177 78.3719C67.9404 79.6806 67.8812 79.7274 66.8264 79.9984L65.8702 80.2415L65.19 80.0171C64.8154 79.8956 64.4309 79.8021 64.3324 79.8021C64.2436 79.8021 63.6226 79.9517 62.9621 80.1293C62.3016 80.3163 61.7397 80.4471 61.72 80.4284C61.6905 80.4004 62.1735 78.6804 62.2326 78.5963C62.2524 78.5776 62.3312 78.6336 62.4199 78.7178C62.972 79.2319 63.5733 79.2132 66.3434 78.5589C67.5756 78.2691 68.7093 77.9699 68.8571 77.8952C69.005 77.8204 69.143 77.7736 69.1529 77.7923C69.1726 77.811 69.0247 78.0728 68.8177 78.3719ZM15.4471 79.0917C15.4471 79.1104 14.8162 79.6058 14.0473 80.1854C13.2685 80.765 12.5686 81.2978 12.47 81.3726C12.332 81.4848 12.0954 81.3913 10.5379 80.578C9.56194 80.0732 8.78316 79.6432 8.80288 79.6245C8.85217 79.5778 14.3726 79.0823 15.0331 79.0637C15.2598 79.0637 15.4471 79.073 15.4471 79.0917ZM70.0302 80.4752C70.0007 80.5967 69.9415 80.8491 69.9119 81.0361C69.8725 81.2324 69.8134 81.3913 69.7739 81.3913C69.6261 81.4006 67.5953 80.7743 67.5953 80.7182C67.5953 80.6621 69.4289 80.2976 69.8528 80.2789C70.0401 80.2695 70.0697 80.3069 70.0302 80.4752ZM36.3458 92.4685C36.3458 93.1883 36.3064 93.7305 36.2571 93.7305C36.1289 93.7305 34.0785 92.6742 34.0785 92.6088C34.0884 92.5527 36.1684 91.2253 36.2768 91.2159C36.3162 91.2066 36.3458 91.7768 36.3458 92.4685Z" fill="#F9B233"/>
<path d="M22.6334 8.47768C21.9434 8.67399 21.4209 9.27226 21.0562 10.2631C20.6717 11.3288 20.7801 13.161 21.2927 14.1332C21.8941 15.2736 22.5447 15.769 23.4713 15.769C24.3487 15.769 24.8317 15.4325 25.3542 14.4697C25.8865 13.4695 25.9457 11.6279 25.4823 10.4314C24.9007 8.93573 23.7572 8.15051 22.6334 8.47768ZM23.8657 9.60878C25.088 10.6184 25.2556 13.5723 24.1515 14.6099C23.6093 15.124 22.9686 15.0025 22.4363 14.2921C21.9828 13.6751 21.8251 13.1703 21.7856 12.1234C21.7462 11.2821 21.7659 11.0484 21.9532 10.5342C22.3673 9.35639 23.1263 8.99182 23.8657 9.60878Z" fill="#F9B233"/>
<path d="M113.326 13.6096C112.784 13.9368 112.528 14.1985 112.232 14.7407C112.035 15.1052 112.005 15.2922 112.005 16.1429C112.005 16.9748 112.035 17.1805 112.222 17.5077C112.666 18.3022 113.563 18.7416 114.233 18.4985C114.903 18.2555 115.515 17.5077 115.751 16.6383C116.352 14.4415 114.913 12.6374 113.326 13.6096ZM114.568 14.4042C115.219 15.0211 115.12 16.5635 114.381 17.3113C113.592 18.1059 112.725 17.3207 112.882 15.9372C112.951 15.2922 113.218 14.7594 113.632 14.4228C114.016 14.1237 114.263 14.1144 114.568 14.4042Z" fill="#F9B233"/>
<path d="M19.1833 29.9029C18.5524 30.3703 18.3651 30.791 18.3257 31.8566C18.2863 32.9129 18.3947 33.3616 18.7989 33.829C19.3903 34.5114 22.5153 36.0912 25.0093 36.9699C26.6852 37.5588 29.1694 38.1571 29.4257 38.0262C29.7214 37.8767 30.441 37.0915 30.5889 36.7549C30.8156 36.2314 30.7663 35.4182 30.4706 34.848C30.1749 34.2964 29.0511 33.1747 28.7258 33.1186C27.7794 32.9503 26.1528 32.5297 25.2558 32.2212C23.9348 31.7725 21.6872 30.7255 20.6423 30.0805C20.2184 29.8188 19.8142 29.6038 19.7354 29.6038C19.6664 29.6038 19.41 29.744 19.1833 29.9029ZM20.6916 31.1181C22.4956 32.1745 25.2065 33.2308 27.4245 33.7262C27.9667 33.8477 28.5089 33.9973 28.637 34.0721C28.9821 34.2871 29.7313 35.2873 29.8003 35.6425C29.8791 36.0445 29.6425 36.6801 29.2975 36.9886L29.0609 37.1943L27.8977 36.9138C27.2569 36.7549 26.3796 36.5119 25.9458 36.3717C23.5405 35.6051 19.8832 33.8197 19.4199 33.1747C19.1636 32.8101 19.1636 31.2584 19.4298 30.8844C19.5283 30.7442 19.6664 30.6321 19.7354 30.6321C19.8142 30.6321 20.2381 30.8471 20.6916 31.1181Z" fill="#F9B233"/>
<path d="M101.654 52.5995C101.023 52.8519 100.629 53.5811 100.619 54.5159C100.619 55.4039 100.767 55.8433 101.211 56.2639C101.546 56.5817 101.635 56.6191 102.098 56.6191C102.571 56.6191 102.65 56.5911 102.975 56.2639C103.399 55.8433 103.577 55.3572 103.577 54.5906C103.577 53.1885 102.63 52.2069 101.654 52.5995ZM102.512 53.8148C102.749 54.2541 102.739 54.9459 102.492 55.4039C102.246 55.8713 101.97 55.89 101.694 55.4693C101.536 55.2263 101.506 55.0487 101.526 54.5533C101.585 53.4876 102.128 53.0763 102.512 53.8148Z" fill="#F9B233"/>
<path d="M102.285 57.2084C101.211 57.8814 101.161 60.0314 102.216 60.8727C102.433 61.0504 102.62 61.1064 102.955 61.1064C103.35 61.1064 103.458 61.0597 103.823 60.7045C104.306 60.2558 104.464 59.8164 104.454 59.0032C104.434 57.4701 103.32 56.554 102.285 57.2084ZM103.32 58.1432C103.488 58.3582 103.527 58.5451 103.527 59.0499C103.527 59.5547 103.488 59.7417 103.32 59.9567C103.024 60.3306 102.827 60.3306 102.591 59.966C102.187 59.3303 102.453 57.7599 102.955 57.8534C103.044 57.8721 103.202 58.0029 103.32 58.1432Z" fill="#F9B233"/>
<path d="M101.723 61.9942C101.014 62.5644 100.747 63.9292 101.181 64.8453C101.457 65.4529 101.999 65.8735 102.492 65.8735C102.985 65.8735 103.527 65.4529 103.803 64.8546C104.217 63.9666 103.941 62.5363 103.261 61.9942C102.847 61.667 102.128 61.667 101.723 61.9942ZM102.906 62.9757C103.163 63.4618 103.143 64.2657 102.857 64.6677C102.581 65.0509 102.433 65.0696 102.157 64.7237C101.881 64.3685 101.861 63.2374 102.128 62.8448C102.374 62.4989 102.689 62.5457 102.906 62.9757Z" fill="#F9B233"/>
<path d="M91.0866 57.3767C90.9092 57.4234 90.6628 57.601 90.5346 57.7693C89.9924 58.4517 89.9234 59.1715 90.1206 62.5087C90.3276 66.1637 90.3966 66.5002 91.0768 67.0424C91.3627 67.2761 91.4514 67.2948 91.9936 67.2574C92.7132 67.2013 92.9695 67.0611 93.2061 66.6218C93.354 66.332 93.3737 65.9861 93.354 63.35C93.3342 59.3678 93.1962 58.2928 92.5949 57.6758C92.3485 57.4141 92.1907 57.3393 91.8457 57.3113C91.5993 57.2926 91.2641 57.3206 91.0866 57.3767ZM92.0921 58.4891C92.2499 58.7789 92.4372 60.4615 92.4372 61.6393V62.3217H92.0034C91.757 62.3217 91.4612 62.3591 91.3232 62.4059L91.0965 62.49L90.9881 61.1252C90.8205 59.0593 91.0176 58.2086 91.6485 58.2086C91.8753 58.2086 91.9739 58.2741 92.0921 58.4891ZM92.3189 63.3126C92.5259 63.4435 92.5358 63.5276 92.5358 64.5465C92.5358 65.7057 92.4175 66.3226 92.1809 66.4068C92.102 66.4348 91.9246 66.4255 91.7866 66.3974C91.4415 66.3133 91.2641 65.8646 91.1754 64.7896C91.1064 64.023 91.1261 63.8548 91.2641 63.6304C91.5697 63.1724 91.9344 63.0509 92.3189 63.3126Z" fill="#F9B233"/>
</svg>
