<svg width="80" height="57" viewBox="0 0 80 57" fill="none" xmlns="http://www.w3.org/2000/svg">
<path d="M9.80132 22.6026V24.1026H11.3013H22.6026C28.0076 24.1026 32.404 28.499 32.404 33.904V45.2053C32.404 50.6103 28.0076 55.0066 22.6026 55.0066H11.3013C5.89636 55.0066 1.5 50.6103 1.5 45.2053V39.5546V33.904V21.19C1.5 10.3109 10.3109 1.5 21.19 1.5H22.6026C24.8997 1.5 26.7533 3.35357 26.7533 5.65066C26.7533 7.94776 24.8997 9.80132 22.6026 9.80132H21.19C14.9051 9.80132 9.80132 14.9051 9.80132 21.19V22.6026ZM55.0066 22.6026V24.1026H56.5066H67.8079C73.2129 24.1026 77.6093 28.499 77.6093 33.904V45.2053C77.6093 50.6103 73.2129 55.0066 67.8079 55.0066H56.5066C51.1017 55.0066 46.7053 50.6103 46.7053 45.2053V39.5546V33.904V21.19C46.7053 10.3109 55.5162 1.5 66.3953 1.5H67.8079C70.105 1.5 71.9586 3.35357 71.9586 5.65066C71.9586 7.94776 70.105 9.80132 67.8079 9.80132H66.3953C60.1104 9.80132 55.0066 14.9051 55.0066 21.19V22.6026Z" stroke="white" stroke-width="3"/>
</svg>
